# xmcd
#
# Track frame offsets: 
#        150
#        21628
#        43958
#        64256
#        85729
#        104982
#        128930
#        150216
#        171309
#        192949
#        212181
#        234364
#        260514
#        278992
#        299726
#        319175
#        322255
#
# Disc length: 4469 seconds
#
# Revision: 10
# Processed by: cddbd v1.5.2PL0 Copyright (c) Steve Scherf et al.
# Submitted via: ExactAudioCopy v0.95b4
#
DISCID=14117311
DTITLE=?????? - ?? -Romantic Energy-
DYEAR=2005
DGENRE=Instrumental Pop
TTITLE0=??
TTITLE1=?????
TTITLE2=??
TTITLE3=???????
TTITLE4=?
TTITLE5=???
TTITLE6=???
TTITLE7=Romantic Energy
TTITLE8=???????
TTITLE9=???
TTITLE10=????
TTITLE11=????
TTITLE12=???
TTITLE13=??????????
TTITLE14=????
TTITLE15=????
TTITLE16=Lovers
EXTD=YEAR: 2005
EXTT0=
EXTT1=
EXTT2=
EXTT3=
EXTT4=
EXTT5=
EXTT6=
EXTT7=
EXTT8=
EXTT9=
EXTT10=
EXTT11=
EXTT12=
EXTT13=
EXTT14=
EXTT15=
EXTT16=
PLAYORDER=
